<svg id="Layer_1" data-name="Layer 1" xmlns="http://www.w3.org/2000/svg" viewBox="0 0 38.47 38.22">
  <title>code-mirror</title>
  <path d="M18.24,1.38A3.13,3.13,0,0,1,18,4C17.63,4.7,7.77,7,3.93,12.66,1.57,16.6-2,28,9.5,35.59c5.18,2.85,7.38,2.77,7.38,2.77s-3.46-2.6-1.26-4.37,5.42-2.6,6.28-5c1,.84,2.67,2.6,4.24,2.43-.16-1.09-.55-1.51.7-1.68a15.76,15.76,0,0,1,1.89-.17,5,5,0,0,0-2.51-1.09c-1.34-.08-3.85-2.85-3.77-4,1.64-1,3.77-2.69,5-2.18s2.51,1.34,2.75,2.09c0,.51-.24,1.35.78.68s.79-1.09,1.18-2,.47-1.09-.39-1.85-2.91-2.52-4.56-2-5.1,1.93-6.82.16c.7-1.68,1.8-4.36,1.25-6.21,1-.84,2.2-1.76,2.36-3.27,1.17-.17,3.68-.93,3.21-2.27S23.42.23,18.32,1.4" transform="translate(-0.63 -0.87)" style="fill: #fff"/>
  <path d="M34.54,15.1c.86-2.43,2.27-6.55.94-6.72s-2.83,3.7-3.22,4.71-2,6.05-1.1,6.72,3.38-4.71,3.38-4.71" transform="translate(-0.63 -0.87)" style="fill: #fff"/>
  <path d="M27.23,8.55c.25-.41.46-.05-.6,0s-2.32.43-2.54.93c-.4.92-.54,3.2-2.07,3.7-.07.58,0,1.93,2.15,2.18s2.24-1.25,3.5-1.21,1.13-.46.7-.84a10.3,10.3,0,0,1-1.92-3.78c0-.84.51-.54.78-1M8,33.88A2.38,2.38,0,0,1,9.25,31c2-1,3.73-.2,4.09.51s-.59,3.57-4,3.61L8,33.88" transform="translate(-0.63 -0.87)" style="fill: #db697e"/>
  <g style="opacity: 0.699999988079071">
    <path d="M34.79,9.75a1.77,1.77,0,0,1,0,.4,1.5,1.5,0,0,1,0,.42v.1s0,.07,0,.11.12.11.09.17a.23.23,0,0,1-.11.08c0,.12-.06.25-.08.38a.45.45,0,0,1,0,.12c0,.09-.05.16-.07.25s0,.22-.08.24l-.08.23h0s0,.07,0,.1l-.05,0s0,.1,0,.16a.5.5,0,0,0-.08.12c0,.09,0,.22-.12.29l-.08.05a.56.56,0,0,0,0,.08l-.07.13c-.08.14-.18.31-.26.47a.37.37,0,0,1,0,.09c0,.07-.07.12-.09.19a1.22,1.22,0,0,1-.2.37l0,0s0,0,0,.06,0,0,0,0,0,0,0,.05a.36.36,0,0,0-.1.07l0,.1s-.06.05-.08.1-.1.23-.21.27l-.1,0s0-.07,0-.09,0,0,0,0,0-.11,0-.15,0-.08,0-.14V14.3a1.09,1.09,0,0,0,0-.18,3.68,3.68,0,0,1,.08-.41,1.72,1.72,0,0,1,.08-.28c.07-.15.13-.33.21-.49s.06-.1.08-.16a.62.62,0,0,0,0-.1c.12-.27.29-.52.43-.81s.22-.46.37-.72a1.77,1.77,0,0,1,.19-.33c0-.07.12-.2.18-.33s0-.08.07-.09.11-.17.17-.24l0,0,.05-.06a.83.83,0,0,0,.16-.13s0,0,0,0,.09-.16.14-.17h0" transform="translate(-0.63 -0.87)" style="fill: #db697e"/>
  </g>
  <g style="opacity: 0.699999988079071">
    <path d="M34.29,11.47a3.85,3.85,0,0,1,.07.52,2.48,2.48,0,0,1-.06.58s0,.09,0,.13,0,.1,0,.15.13.14.09.24-.09.08-.14.11-.1.36-.14.53a.94.94,0,0,1,0,.16c0,.11-.08.22-.11.35s0,.28-.13.3-.07.19-.12.3,0,0-.07,0,0,.09-.05.12l-.06,0c0,.05,0,.13-.05.2l-.09.11v0h0a1.42,1.42,0,0,1-.14.41s-.06,0-.08.08a.54.54,0,0,0-.06.11L33,16.1c-.08.2-.19.44-.27.67l0,.14c0,.09-.07.18-.1.28a1.53,1.53,0,0,1-.23.53l-.06.05a.92.92,0,0,1,0,.09l0,0a.3.3,0,0,1,0,.08,1.27,1.27,0,0,0-.13.11.83.83,0,0,1-.07.13l-.11.14-.14.21a.33.33,0,0,1-.16.15s-.08,0-.12,0,0-.08,0-.12,0-.05,0-.06a1.34,1.34,0,0,1,0-.2c0-.05,0-.09.05-.16a1.33,1.33,0,0,0,0-.2s0-.06,0-.1a.76.76,0,0,1,0-.14.89.89,0,0,0,0-.23c0-.17.05-.32.1-.53a2,2,0,0,1,.09-.37c0-.11.07-.22.1-.33s.07-.24.11-.36l.1-.22a1.31,1.31,0,0,1,0-.15,2.65,2.65,0,0,1,.11-.3l.14-.27.07-.16s0-.09.07-.14.1-.2.14-.3l.24-.48.29-.49a3.65,3.65,0,0,1,.26-.44,3.25,3.25,0,0,0,.23-.43c0-.06,0-.11.09-.12s.12-.22.19-.31,0,0,.06-.06A.35.35,0,0,1,34,12a.8.8,0,0,0,.17-.21s0,0,0-.09.08-.22.14-.26h0" transform="translate(-0.63 -0.87)" style="fill: #db697e"/>
  </g>
  <path d="M32.58,13.34a15.77,15.77,0,0,0-.36,4.71l.36-4.71m.74-1.74c0-.17-.35,5-.26,5.18a19.23,19.23,0,0,0,.26-5.18" transform="translate(-0.63 -0.87)" style="fill: #fff"/>
  <path d="M18.34,1.7s.37,2.23-3,3.4S7.22,7.28,3.77,11.71A17,17,0,0,0,2,28.28c2.35,4.82,8.11,10.81,18.47,10.81S39.1,30.58,39.1,24.7c0-3.08-1.57-2.39-2.12.49A17.08,17.08,0,0,1,20.46,37.53C9,37.53,3.14,30.08,2.41,23.7s.93-11.88,7-15.19,9.84-2,9-6.8" transform="translate(-0.63 -0.87)" style="fill: #2e2b2c"/>
  <path d="M15.48,18.94a7.69,7.69,0,0,1-4,5c-3.3,1.62-4.71,2.52-5.18,5.32,1.25-2.24,4.91-2.69,7-4.87a9.55,9.55,0,0,0,2.19-5.43m.89-7.79s2.83,3.92,6.17,2,1.62-6.33,1.57-6.61.37,4.93-2.14,5.82-5.59-1.23-5.59-1.23M9,34.57a4,4,0,0,0,3.08-1.45c1.31-1.57.57-4,2.72-4.93a5.25,5.25,0,0,1,3.61-.34s-3.82.56-4.13,2.91-.84,3.42-1.67,4.14a3.89,3.89,0,0,1-1.94.84L9,34.57Z" transform="translate(-0.63 -0.87)" style="fill: #2e2b2c"/>
  <path d="M17.07,22.38a6.72,6.72,0,0,0,4.62-4,8.22,8.22,0,0,0,.39-5.29l-1.6.25a7.85,7.85,0,0,1,.15,3.91,9,9,0,0,1-3.56,5.16m17.12-7.86c-1.14,3-2.81,5.2-3,5.09-.35-.21,0-2.86,1.11-5.89s2.54-5.35,3.06-5.12,0,2.88-1.16,5.92m1.64-6.09c-1.29-.75-2.88,2.05-4.18,5.31s-1.45,5.9-.44,6.37c1.34.62,2.6-1.87,3.9-5.14s1.88-5.88.72-6.55" transform="translate(-0.63 -0.87)" style="fill: #2e2b2c"/>
  <path d="M12.4,24.88s.81,2.6,4.87,2.07c3.82-.5,5.45-2.07,7.79-3.63,1.67-1.12,1.57-.61,1.78-.56a4.4,4.4,0,0,0,2.14.56c.05.55-.47.1-.68.61a2,2,0,0,0,2.09,1.68c2.14-.39,1.54-1.35,2-2.41s.7-1.62-1.38-3.13a3.39,3.39,0,0,0-3.3-1.17c-.78,0-2.82,1.17-4.24.9A7.27,7.27,0,0,1,21.14,19l-.94,1.11a4.64,4.64,0,0,0,3.71.89c2-.5,3.46-2.12,5.18-1.28a8.91,8.91,0,0,1,2.59,1.82c.6.47.65,1,.23,1.42s0,.78-.26,1.28-1.57.73-1.57.73,1.44-2-.31-2.12c-1.26-.11-2-1.91-3.82-.95-2.55,1.36-6.17,3.69-8.68,4s-3.35-.56-4-2.12a3,3,0,0,0-.88,1.17" transform="translate(-0.63 -0.87)" style="fill: #2e2b2c"/>
  <path d="M21.4,25.44a2.88,2.88,0,0,1,1.26,3.19c-.53,2.19-2.88,3.7-4.4,4.42s-2.64,1.69-1.51,2.3c.94.5,1.46-.78,2.82-1s2.56.33,2.67,1.17a2.18,2.18,0,0,0-1-.33,1.34,1.34,0,0,1,.52.89c.05.56-.05.28-.36.28-.79,0-.89-.73-1.57-.61-1.73.16-1.83.94-2.77,1.06s-2.52-.45-2.3-1.74,1.83-2.18,3.34-2.85,3.82-2.8,3.51-4.71S20,26,20,26l1.46-.56ZM25.86,9.59S26.6,10,27.07,12a3,3,0,0,0,1.1,1.48c.36.17-.16.33-.42.27s-.81-.3-1.17,0a3,3,0,0,1-2.51,1,5.87,5.87,0,0,1-2.33-1.08A2.93,2.93,0,0,0,25,15.8c1.94-.1,1.51-1.18,2.83-1.4s1.16-.93.88-1.51c-.44-.92-1.83-1.15-2-3.85-.16-.27-1.14,0-.88.54m4.48,14.05a18.2,18.2,0,0,1-.93,2.64s-.2.62-.76.4-.42-.67-.42-.67l1.33-2.58a4.83,4.83,0,0,1,.78.21m1.47-3.58-.26.84-.85-.7.23-.53Z" transform="translate(-0.63 -0.87)" style="fill: #2e2b2c"/>
  <path d="M22.23,24.94c-.15.61,1.83,4.2,3.19,4s1.57.22,1.15.5-1.15.39-1,.78.39.78-.28.67a4.77,4.77,0,0,1-2.9-2.4c-.26.89-.37,1.17-.37,1.17s2.67,3,5.39,1.74c-.47-.39-1.78-.28-.68-.95s1.94-.89,2.46.17c.26-.06.26-2.52-3.19-2.35-1.2-.17-2.83-2.69-2.83-4-.31.34-.73.06-.88.68M32.89,12.55a10.47,10.47,0,0,0-.4,4l.4-4m.7-1.3c0-.14-.32,3.84-.25,4a15.6,15.6,0,0,0,.25-4M24.45,9s2.95-.27,2.43-1.54c-1.58-3.79-4.58-6-10.13-5.79C19.89.37,22.56.53,25.12,2.89a9.76,9.76,0,0,1,2.33,3.7c.73,1.75.52,1.91-.29,2.4a3.26,3.26,0,0,1-2.71,0" transform="translate(-0.63 -0.87)" style="fill: #2e2b2c"/>
  <path d="M24.73,9.51s.81.6,1.45.11c.29-.32.49-.5-.33-.46l-1,0c-.69-.14-.68.08-.09.39Z" transform="translate(-0.63 -0.87)" style="fill: #2e2b2c"/>
</svg>
